<svg xmlns="http://www.w3.org/2000/svg" viewBox="0 0 533.5 544.3" width="24" height="24">
  <path fill="#4285F4" d="M533.5 278.4c0-17.7-1.4-35-4-51.7H272v97.9h147.3c-6.3 33.9-25 62.6-53.4 81.8v68.1h86.4c50.5-46.5 79.2-115.2 79.2-196.1z"/>
  <path fill="#34A853" d="M272 544.3c72.9 0 134-24.2 178.7-65.9l-86.4-68.1c-24 16.1-54.5 25.7-92.3 25.7-70.9 0-131-47.8-152.5-112.1H31.5v70.6C76.4 480.1 168.4 544.3 272 544.3z"/>
  <path fill="#FBBC05" d="M119.5 325.9c-5.4-16-8.5-33.1-8.5-50.4s3.1-34.4 8.5-50.4v-70.6H31.5C11.5 193.8 0 232.1 0 275.5s11.5 81.7 31.5 121.1l88-70.7z"/>
  <path fill="#EA4335" d="M272 107.7c39.6 0 74.9 13.6 102.8 40.3l77.1-77.1C405.5 24.2 344.4 0 272 0 168.4 0 76.4 64.2 31.5 160.7l88 70.6C141 155.5 201.1 107.7 272 107.7z"/>
</svg>

